<svg version="1.1" id="Layer_1" xmlns="http://www.w3.org/2000/svg" xmlns:xlink="http://www.w3.org/1999/xlink" x="0px" y="0px"
	 width="100%" viewBox="0 0 512 512" enable-background="new 0 0 512 512" xml:space="preserve">
<path fill="#FFFFFF" opacity="1.000000" stroke="none" 
	d="
M248.000000,1.000000 
	C336.290710,1.000000 424.581421,1.000000 512.936035,1.000000 
	C512.936035,171.666672 512.936035,342.333344 512.936035,513.000000 
	C469.895844,513.000000 426.916595,513.000000 383.596069,512.632446 
	C404.014954,508.135284 418.361115,488.482147 418.193268,467.355835 
	C417.670288,401.530823 417.939423,335.698944 418.075104,269.870056 
	C418.093353,261.007080 416.415527,252.858276 411.744934,245.300095 
	C403.432465,231.848419 391.226929,224.241425 375.645630,224.148895 
	C313.985046,223.782623 252.321030,223.998428 190.658279,223.998428 
	C188.880295,223.998428 187.102310,223.998428 185.183319,223.998428 
	C185.099548,222.884689 185.010117,222.249207 185.009933,221.613678 
	C185.002213,193.948776 184.807037,166.281372 185.158401,138.620956 
	C185.233063,132.743561 186.303055,126.457161 188.627747,121.103081 
	C198.607742,98.117744 218.735001,88.050224 240.789490,92.347488 
	C262.171417,96.513695 277.049255,115.405090 278.096649,136.855621 
	C278.475708,144.618988 279.306458,152.488556 281.113831,160.026062 
	C284.421844,173.822021 294.017548,182.541107 306.677399,187.951813 
	C316.634247,192.207275 326.854340,192.184769 337.254761,189.075592 
	C351.281067,184.882477 361.028076,175.946915 365.872681,162.416351 
	C371.878113,145.643661 369.666718,128.308685 366.538788,111.382088 
	C363.603760,95.499222 358.023376,80.386864 349.239471,66.565880 
	C340.045288,52.099403 329.094055,39.322987 315.425873,28.907881 
	C300.213196,17.315887 283.367950,9.103858 264.839203,4.427057 
	C259.291260,3.026710 253.616608,2.128347 248.000000,1.000000 
M439.580261,150.046021 
	C443.784790,147.689514 448.077637,145.475464 452.170166,142.938339 
	C456.694763,140.133347 461.396729,137.442169 465.360535,133.950989 
	C469.756165,130.079437 469.642792,122.115074 465.942902,116.655067 
	C463.722534,113.378410 456.155823,111.103073 451.809235,112.742935 
	C448.835846,113.864723 445.987549,115.397484 443.230560,116.999855 
	C429.586884,124.929703 415.961060,132.891495 402.401245,140.963470 
	C398.797852,143.108536 396.505005,150.087814 397.494568,154.052887 
	C400.218414,164.966904 411.206909,166.866272 420.166473,161.385284 
	C426.344543,157.605865 432.707428,154.128494 439.580261,150.046021 
M467.117371,234.391449 
	C470.277802,226.442734 468.016937,220.068054 460.595978,215.952927 
	C458.901276,215.013168 457.236053,214.020309 455.556061,213.054001 
	C442.850555,205.745926 430.181580,198.373123 417.421173,191.162125 
	C412.184570,188.202896 406.862213,188.709366 402.184418,192.371292 
	C394.145294,198.664566 396.661835,210.416534 405.985901,215.591263 
	C418.091675,222.309830 429.849915,229.654709 441.957550,236.369766 
	C452.797089,242.381561 458.257172,245.695892 467.117371,234.391449 
z"/>
<path fill="#242020" opacity="1.000000" stroke="none" 
	d="
M247.531342,1.000000 
	C253.616608,2.128347 259.291260,3.026710 264.839203,4.427057 
	C283.367950,9.103858 300.213196,17.315887 315.425873,28.907881 
	C329.094055,39.322987 340.045288,52.099403 349.239471,66.565880 
	C358.023376,80.386864 363.603760,95.499222 366.538788,111.382088 
	C369.666718,128.308685 371.878113,145.643661 365.872681,162.416351 
	C361.028076,175.946915 351.281067,184.882477 337.254761,189.075592 
	C326.854340,192.184769 316.634247,192.207275 306.677399,187.951813 
	C294.017548,182.541107 284.421844,173.822021 281.113831,160.026062 
	C279.306458,152.488556 278.475708,144.618988 278.096649,136.855621 
	C277.049255,115.405090 262.171417,96.513695 240.789490,92.347488 
	C218.735001,88.050224 198.607742,98.117744 188.627747,121.103081 
	C186.303055,126.457161 185.233063,132.743561 185.158401,138.620956 
	C184.807037,166.281372 185.002213,193.948776 185.009933,221.613678 
	C185.010117,222.249207 185.099548,222.884689 185.183319,223.998428 
	C187.102310,223.998428 188.880295,223.998428 190.658279,223.998428 
	C252.321030,223.998428 313.985046,223.782623 375.645630,224.148895 
	C391.226929,224.241425 403.432465,231.848419 411.744934,245.300095 
	C416.415527,252.858276 418.093353,261.007080 418.075104,269.870056 
	C417.939423,335.698944 417.670288,401.530823 418.193268,467.355835 
	C418.361115,488.482147 404.014954,508.135284 383.127411,512.632446 
	C282.312439,513.000000 181.624878,513.000000 80.345123,512.635742 
	C71.181755,510.308258 63.564190,506.195374 57.645523,499.930481 
	C48.166321,489.896729 44.834835,477.364990 44.962433,463.707794 
	C45.114937,447.384796 44.919094,431.058807 45.013130,414.734924 
	C45.306290,363.843048 45.358662,312.946503 46.194283,262.063110 
	C46.429893,247.715881 58.518833,232.045609 73.458839,227.135056 
	C79.971512,224.994446 86.952263,224.277939 93.998413,222.858673 
	C93.998413,201.870377 93.767807,180.393173 94.085770,158.924088 
	C94.273491,146.249451 95.189125,133.578308 96.030853,120.922447 
	C97.098404,104.871040 102.653442,90.056633 109.709831,75.855782 
	C119.049263,57.060352 132.392853,41.309639 149.031860,28.621782 
	C162.966995,17.995712 178.290833,9.786448 195.574692,5.753880 
	C202.066147,4.239332 208.525833,2.588628 215.000000,0.999999 
	C225.687561,1.000000 236.375122,1.000000 247.531342,1.000000 
M392.107269,460.480682 
	C392.106873,397.336212 392.117584,334.191742 392.097260,271.047272 
	C392.092834,257.328461 384.812805,249.981445 371.245026,249.979462 
	C278.277588,249.965775 185.310135,249.964279 92.342690,249.980728 
	C79.001640,249.983093 71.346558,257.239136 71.325356,270.538483 
	C71.220955,336.015411 71.270027,401.492554 71.285789,466.969635 
	C71.287544,474.250305 73.586525,480.818970 80.234413,484.232208 
	C84.162399,486.248932 89.097618,487.109833 93.582260,487.117554 
	C185.716400,487.276031 277.850861,487.237427 369.985260,487.230103 
	C371.816437,487.229950 373.655151,487.223877 375.477509,487.069366 
	C384.203796,486.329407 391.302521,479.227966 391.969971,470.462860 
	C392.197144,467.479279 392.071655,464.468872 392.107269,460.480682 
M121.991951,122.558220 
	C121.654732,125.696709 121.041801,128.833572 121.023170,131.973953 
	C120.847290,161.623856 120.769997,191.274353 120.681068,220.924728 
	C120.678238,221.868881 120.855705,222.813583 120.966759,223.936417 
	C133.710861,223.936417 146.117416,223.936417 159.029556,223.936417 
	C159.029556,221.915649 159.029541,220.129242 159.029541,218.342819 
	C159.029663,192.521835 158.990601,166.700745 159.068390,140.880005 
	C159.081375,136.566620 159.380173,132.226578 159.923645,127.946709 
	C163.859161,96.954811 188.947235,70.978172 219.481491,66.153412 
	C251.389435,61.111603 282.480743,77.203026 296.653137,105.757736 
	C303.065186,118.676781 304.415009,132.379807 304.756958,146.480743 
	C305.027130,157.621857 313.354248,165.222565 324.079987,165.100052 
	C334.575256,164.980164 342.606598,156.800537 342.984344,145.833786 
	C344.108582,113.195976 334.723236,84.250893 311.555511,60.782669 
	C282.665039,31.517509 247.279999,20.154408 207.457077,29.820595 
	C159.616089,41.432999 131.621429,73.478569 121.991951,122.558220 
z"/>
<path fill="#FFFFFF" opacity="1.000000" stroke="none" 
	d="
M214.531342,0.999999 
	C208.525833,2.588628 202.066147,4.239332 195.574692,5.753880 
	C178.290833,9.786448 162.966995,17.995712 149.031860,28.621782 
	C132.392853,41.309639 119.049263,57.060352 109.709831,75.855782 
	C102.653442,90.056633 97.098404,104.871040 96.030853,120.922447 
	C95.189125,133.578308 94.273491,146.249451 94.085770,158.924088 
	C93.767807,180.393173 93.998413,201.870377 93.998413,222.858673 
	C86.952263,224.277939 79.971512,224.994446 73.458839,227.135056 
	C58.518833,232.045609 46.429893,247.715881 46.194283,262.063110 
	C45.358662,312.946503 45.306290,363.843048 45.013130,414.734924 
	C44.919094,431.058807 45.114937,447.384796 44.962433,463.707794 
	C44.834835,477.364990 48.166321,489.896729 57.645523,499.930481 
	C63.564190,506.195374 71.181755,510.308258 79.876465,512.635742 
	C53.680984,513.000000 27.361965,513.000000 1.021474,513.000000 
	C1.021474,342.440430 1.021474,171.880875 1.021474,1.000000 
	C72.020569,1.000000 143.041626,1.000000 214.531342,0.999999 
z"/>
<path fill="#231F20" opacity="1.000000" stroke="none" 
	d="
M439.283997,150.281067 
	C432.707428,154.128494 426.344543,157.605865 420.166473,161.385284 
	C411.206909,166.866272 400.218414,164.966904 397.494568,154.052887 
	C396.505005,150.087814 398.797852,143.108536 402.401245,140.963470 
	C415.961060,132.891495 429.586884,124.929703 443.230560,116.999855 
	C445.987549,115.397484 448.835846,113.864723 451.809235,112.742935 
	C456.155823,111.103073 463.722534,113.378410 465.942902,116.655067 
	C469.642792,122.115074 469.756165,130.079437 465.360535,133.950989 
	C461.396729,137.442169 456.694763,140.133347 452.170166,142.938339 
	C448.077637,145.475464 443.784790,147.689514 439.283997,150.281067 
z"/>
<path fill="#231F20" opacity="1.000000" stroke="none" 
	d="
M467.049377,234.774200 
	C458.257172,245.695892 452.797089,242.381561 441.957550,236.369766 
	C429.849915,229.654709 418.091675,222.309830 405.985901,215.591263 
	C396.661835,210.416534 394.145294,198.664566 402.184418,192.371292 
	C406.862213,188.709366 412.184570,188.202896 417.421173,191.162125 
	C430.181580,198.373123 442.850555,205.745926 455.556061,213.054001 
	C457.236053,214.020309 458.901276,215.013168 460.595978,215.952927 
	C468.016937,220.068054 470.277802,226.442734 467.049377,234.774200 
z"/>
<path fill="#F4C525" opacity="1.000000" stroke="none" 
	d="
M392.107269,460.975708 
	C392.071655,464.468872 392.197144,467.479279 391.969971,470.462860 
	C391.302521,479.227966 384.203796,486.329407 375.477509,487.069366 
	C373.655151,487.223877 371.816437,487.229950 369.985260,487.230103 
	C277.850861,487.237427 185.716400,487.276031 93.582260,487.117554 
	C89.097618,487.109833 84.162399,486.248932 80.234413,484.232208 
	C73.586525,480.818970 71.287544,474.250305 71.285789,466.969635 
	C71.270027,401.492554 71.220955,336.015411 71.325356,270.538483 
	C71.346558,257.239136 79.001640,249.983093 92.342690,249.980728 
	C185.310135,249.964279 278.277588,249.965775 371.245026,249.979462 
	C384.812805,249.981445 392.092834,257.328461 392.097260,271.047272 
	C392.117584,334.191742 392.106873,397.336212 392.107269,460.975708 
M193.174316,409.500000 
	C193.174957,422.155273 193.108902,434.811035 193.198380,447.465698 
	C193.263977,456.743469 198.560669,462.010162 207.767303,462.039459 
	C223.586212,462.089844 239.405457,462.072845 255.224487,462.046326 
	C265.178375,462.029633 270.161926,457.039795 270.175995,447.022034 
	C270.207520,424.542328 270.096008,402.061646 270.315033,379.584045 
	C270.339325,377.094788 271.533478,374.093170 273.194031,372.226898 
	C285.798462,358.060760 291.296326,341.821686 288.161499,322.977600 
	C284.174591,299.011383 264.915405,279.616455 241.785095,276.063538 
	C216.402023,272.164581 192.483047,283.912781 181.053711,305.892792 
	C169.664749,327.795105 173.470810,354.204010 190.337738,372.118042 
	C191.931396,373.810638 192.977448,376.673492 193.048950,379.030365 
	C193.346832,388.845795 193.174362,398.675507 193.174316,409.500000 
z"/>
<path fill="#F4C425" opacity="1.000000" stroke="none" 
	d="
M122.026588,122.118958 
	C131.621429,73.478569 159.616089,41.432999 207.457077,29.820595 
	C247.279999,20.154408 282.665039,31.517509 311.555511,60.782669 
	C334.723236,84.250893 344.108582,113.195976 342.984344,145.833786 
	C342.606598,156.800537 334.575256,164.980164 324.079987,165.100052 
	C313.354248,165.222565 305.027130,157.621857 304.756958,146.480743 
	C304.415009,132.379807 303.065186,118.676781 296.653137,105.757736 
	C282.480743,77.203026 251.389435,61.111603 219.481491,66.153412 
	C188.947235,70.978172 163.859161,96.954811 159.923645,127.946709 
	C159.380173,132.226578 159.081375,136.566620 159.068390,140.880005 
	C158.990601,166.700745 159.029663,192.521835 159.029541,218.342819 
	C159.029541,220.129242 159.029556,221.915649 159.029556,223.936417 
	C146.117416,223.936417 133.710861,223.936417 120.966759,223.936417 
	C120.855705,222.813583 120.678238,221.868881 120.681068,220.924728 
	C120.769997,191.274353 120.847290,161.623856 121.023170,131.973953 
	C121.041801,128.833572 121.654732,125.696709 122.026588,122.118958 
z"/>
<path fill="#252121" opacity="1.000000" stroke="none" 
	d="
M193.174362,409.000000 
	C193.174362,398.675507 193.346832,388.845795 193.048950,379.030365 
	C192.977448,376.673492 191.931396,373.810638 190.337738,372.118042 
	C173.470810,354.204010 169.664749,327.795105 181.053711,305.892792 
	C192.483047,283.912781 216.402023,272.164581 241.785095,276.063538 
	C264.915405,279.616455 284.174591,299.011383 288.161499,322.977600 
	C291.296326,341.821686 285.798462,358.060760 273.194031,372.226898 
	C271.533478,374.093170 270.339325,377.094788 270.315033,379.584045 
	C270.096008,402.061646 270.207520,424.542328 270.175995,447.022034 
	C270.161926,457.039795 265.178375,462.029633 255.224487,462.046326 
	C239.405457,462.072845 223.586212,462.089844 207.767303,462.039459 
	C198.560669,462.010162 193.263977,456.743469 193.198380,447.465698 
	C193.108902,434.811035 193.174957,422.155273 193.174362,409.000000 
M240.348938,436.380432 
	C243.882706,436.951202 244.805420,435.390869 244.777679,431.950470 
	C244.624741,412.978516 245.026794,393.996704 244.556702,375.035187 
	C244.349243,366.667114 246.880478,360.641357 253.299652,355.131317 
	C265.738251,344.454437 266.629730,325.112061 256.042542,312.433990 
	C245.209366,299.461395 226.201416,297.121124 213.027512,307.137970 
	C196.769348,319.499878 195.683914,342.696838 211.182571,356.034241 
	C216.891144,360.946747 219.230988,366.327728 219.087540,373.784332 
	C218.725922,392.584137 218.967773,411.395538 218.967773,430.202271 
	C218.967773,432.154327 218.967773,434.106354 218.967773,436.380646 
	C226.119034,436.380646 232.747543,436.380646 240.348938,436.380432 
z"/>
<path fill="#EDEDED" opacity="1.000000" stroke="none" 
	d="
M239.862503,436.380554 
	C232.747543,436.380646 226.119034,436.380646 218.967773,436.380646 
	C218.967773,434.106354 218.967773,432.154327 218.967773,430.202271 
	C218.967773,411.395538 218.725922,392.584137 219.087540,373.784332 
	C219.230988,366.327728 216.891144,360.946747 211.182571,356.034241 
	C195.683914,342.696838 196.769348,319.499878 213.027512,307.137970 
	C226.201416,297.121124 245.209366,299.461395 256.042542,312.433990 
	C266.629730,325.112061 265.738251,344.454437 253.299652,355.131317 
	C246.880478,360.641357 244.349243,366.667114 244.556702,375.035187 
	C245.026794,393.996704 244.624741,412.978516 244.777679,431.950470 
	C244.805420,435.390869 243.882706,436.951202 239.862503,436.380554 
z"/>
</svg>